<svg width="28" height="28" viewBox="0 0 28 28" fill="none" xmlns="http://www.w3.org/2000/svg">
<path d="M14.0003 0.666687C11.3632 0.666687 8.78538 1.44867 6.59273 2.91376C4.40007 4.37884 2.69111 6.46123 1.68194 8.89757C0.672769 11.3339 0.408725 14.0148 0.923194 16.6012C1.43766 19.1876 2.70754 21.5634 4.57224 23.4281C6.43694 25.2928 8.81271 26.5627 11.3991 27.0772C13.9855 27.5916 16.6664 27.3276 19.1028 26.3184C21.5391 25.3092 23.6215 23.6003 25.0866 21.4076C26.5517 19.215 27.3337 16.6371 27.3337 14C27.3337 12.2491 26.9888 10.5152 26.3187 8.89757C25.6487 7.2799 24.6665 5.81004 23.4284 4.57193C22.1903 3.33382 20.7205 2.35169 19.1028 1.68163C17.4851 1.01156 15.7513 0.666687 14.0003 0.666687ZM14.0003 24.6667C11.8907 24.6667 9.82837 24.0411 8.07425 22.869C6.32012 21.697 4.95295 20.0311 4.14562 18.082C3.33828 16.1329 3.12705 13.9882 3.53862 11.9191C3.9502 9.84993 4.9661 7.94931 6.45786 6.45755C7.94962 4.96579 9.85024 3.94989 11.9194 3.53831C13.9885 3.12674 16.1332 3.33797 18.0823 4.14531C20.0314 4.95264 21.6973 6.31981 22.8693 8.07394C24.0414 9.82806 24.667 11.8904 24.667 14C24.667 16.829 23.5432 19.5421 21.5428 21.5425C19.5424 23.5429 16.8293 24.6667 14.0003 24.6667Z" fill="black"/>
<path d="M17.6133 10.3867C17.4893 10.2617 17.3418 10.1625 17.1794 10.0949C17.0169 10.0272 16.8426 9.99231 16.6666 9.99231C16.4906 9.99231 16.3163 10.0272 16.1538 10.0949C15.9913 10.1625 15.8439 10.2617 15.7199 10.3867L13.9999 12.12L12.2799 10.3867C12.0288 10.1356 11.6883 9.99459 11.3333 9.99459C10.9782 9.99459 10.6377 10.1356 10.3866 10.3867C10.1355 10.6378 9.99446 10.9783 9.99446 11.3334C9.99446 11.6884 10.1355 12.029 10.3866 12.28L12.1199 14L10.3866 15.72C10.2616 15.844 10.1624 15.9915 10.0947 16.1539C10.027 16.3164 9.99219 16.4907 9.99219 16.6667C9.99219 16.8427 10.027 17.017 10.0947 17.1795C10.1624 17.342 10.2616 17.4894 10.3866 17.6134C10.5105 17.7383 10.658 17.8375 10.8205 17.9052C10.983 17.9729 11.1572 18.0078 11.3333 18.0078C11.5093 18.0078 11.6835 17.9729 11.846 17.9052C12.0085 17.8375 12.156 17.7383 12.2799 17.6134L13.9999 15.88L15.7199 17.6134C15.8439 17.7383 15.9913 17.8375 16.1538 17.9052C16.3163 17.9729 16.4906 18.0078 16.6666 18.0078C16.8426 18.0078 17.0169 17.9729 17.1794 17.9052C17.3418 17.8375 17.4893 17.7383 17.6133 17.6134C17.7382 17.4894 17.8374 17.342 17.9051 17.1795C17.9728 17.017 18.0076 16.8427 18.0076 16.6667C18.0076 16.4907 17.9728 16.3164 17.9051 16.1539C17.8374 15.9915 17.7382 15.844 17.6133 15.72L15.8799 14L17.6133 12.28C17.7382 12.1561 17.8374 12.0086 17.9051 11.8461C17.9728 11.6837 18.0076 11.5094 18.0076 11.3334C18.0076 11.1574 17.9728 10.9831 17.9051 10.8206C17.8374 10.6581 17.7382 10.5107 17.6133 10.3867Z" fill="black"/>
</svg>
