<svg width="16" height="23" viewBox="0 0 16 23" fill="none" xmlns="http://www.w3.org/2000/svg">
<path d="M8 0.333344C5.92347 0.335078 3.93199 1.15847 2.46054 2.62367C0.989087 4.08888 0.157234 6.07684 0.146667 8.15334C0.146667 11.2667 1.89333 13.8733 3.17333 15.7733L3.40667 16.12C4.68019 17.9658 6.04638 19.7458 7.5 21.4533L8.00667 22.0467L8.51333 21.4533C9.96677 19.7457 11.333 17.9656 12.6067 16.12L12.84 15.7667C14.1133 13.8667 15.86 11.2667 15.86 8.15334C15.8494 6.07568 15.0167 4.08672 13.5438 2.62132C12.0709 1.15593 10.0777 0.333317 8 0.333344ZM8 11.6667C7.13504 11.6667 6.2895 11.4102 5.57031 10.9296C4.85112 10.4491 4.29057 9.76607 3.95957 8.96695C3.62856 8.16782 3.54195 7.28849 3.7107 6.44015C3.87945 5.59181 4.29597 4.81255 4.90759 4.20093C5.51921 3.58931 6.29846 3.17279 7.14681 3.00404C7.99515 2.8353 8.87448 2.9219 9.6736 3.25291C10.4727 3.58392 11.1557 4.14446 11.6363 4.86365C12.1168 5.58284 12.3733 6.42838 12.3733 7.29334C12.3733 8.45322 11.9126 9.5656 11.0924 10.3858C10.2723 11.2059 9.15988 11.6667 8 11.6667Z" fill="white"/>
</svg>
