<svg width="24" height="24" viewBox="0 0 24 24" fill="none" xmlns="http://www.w3.org/2000/svg">
<path d="M23.25 12C23.25 7.08751 20.1375 2.92501 15.75 1.38751V22.6125C20.1375 21.075 23.25 16.9125 23.25 12Z" fill="#ED4C5C"/>
<path d="M0.75 12C0.75 16.9125 3.9 21.075 8.25 22.6125V1.38751C3.9 2.92501 0.75 7.08751 0.75 12Z" fill="#75A843"/>
<path d="M15.75 1.3875C14.5875 0.975 13.3125 0.75 12 0.75C10.6875 0.75 9.4125 0.975 8.25 1.3875V22.6125C9.4125 23.025 10.6875 23.25 12 23.25C13.3125 23.25 14.5875 23.025 15.75 22.6125V1.3875Z" fill="white"/>
<path d="M15.2625 11.8875C15.225 11.775 15.1875 11.925 15.1875 11.9625C15.1875 11.85 15.15 11.775 15.075 11.6625C14.9625 11.775 14.925 11.925 14.925 12.075C14.8875 11.9625 14.85 11.85 14.7375 11.8125C14.8125 11.925 14.775 12 14.775 12.1125C14.775 12.2625 14.8875 12.375 14.8875 12.525C14.8875 12.675 14.8125 12.7875 14.7 12.9V12.7875C14.325 12.9375 14.4 13.125 14.4 13.4625C14.4 13.8 14.2125 13.725 13.9875 13.9125C14.025 13.8375 14.025 13.725 13.9875 13.65C13.9875 13.875 13.6875 13.875 13.65 14.0625C13.6125 14.1375 13.65 14.2875 13.5375 14.325C13.4625 14.3625 13.35 14.4375 13.35 14.5125C13.275 14.475 13.2 14.475 13.0875 14.475C13.125 14.4375 13.1625 14.4375 13.2 14.4C12.825 14.2125 12.7125 14.625 12.375 14.6625C12.2625 14.6625 12 14.5125 12 14.6625C12.3375 14.6625 12.4875 14.9625 12.75 14.9625C12.975 14.9625 13.1625 14.775 13.3875 14.775C13.35 14.775 13.2375 14.7 13.125 14.7C13.3125 14.5875 13.425 14.3625 13.65 14.3625C14.025 14.3625 14.2125 14.2875 14.325 13.9125C14.2875 13.9125 14.25 13.9125 14.2125 13.95C14.2125 13.8 14.3625 13.6125 14.5125 13.5375C14.8875 13.4625 14.85 13.1625 15.075 12.9C15 12.9 14.925 12.9375 14.85 13.0125C14.85 12.7875 14.8125 12.5625 15 12.4125C15.375 12.225 15.3375 12.15 15.2625 11.8875Z" fill="#75A843"/>
<path d="M8.73747 11.8875C8.66247 12.1875 8.62497 12.2625 8.92497 12.45C9.14997 12.6 9.07498 12.825 9.07498 13.05C8.99998 12.975 8.96247 12.9375 8.84997 12.9375C9.07497 13.1625 9.03747 13.5 9.41247 13.575C9.52497 13.65 9.71247 13.8375 9.71247 13.9875C9.67497 13.9875 9.63747 13.95 9.59997 13.95C9.71247 14.325 9.89997 14.4 10.275 14.4C10.5 14.4 10.6125 14.625 10.8 14.7375C10.6875 14.7375 10.575 14.775 10.5375 14.8125C10.7625 14.8125 10.95 15.0375 11.175 15C11.4375 15 11.625 14.7 11.925 14.7C11.925 14.55 11.6625 14.7 11.55 14.7C11.25 14.625 11.1375 14.25 10.725 14.4C10.7625 14.4375 10.8 14.475 10.8375 14.475C10.7625 14.475 10.65 14.4375 10.575 14.5125C10.5375 14.4375 10.4625 14.3625 10.3875 14.325C10.3125 14.25 10.3125 14.1375 10.275 14.0625C10.2 13.875 9.93747 13.8375 9.93747 13.65C9.89997 13.725 9.89997 13.8375 9.93747 13.9125C9.71247 13.725 9.52497 13.8 9.52497 13.4625C9.52497 13.1625 9.59997 12.9375 9.22497 12.7875V12.9C9.11247 12.7875 9.03747 12.7125 9.03747 12.525C9.03747 12.375 9.18747 12.2625 9.14997 12.1125C9.14997 12 9.11247 11.925 9.18747 11.8125C9.07497 11.85 9.03747 11.9625 8.99997 12.075C8.99997 11.925 8.96247 11.775 8.84997 11.6625C8.81247 11.7375 8.77497 11.85 8.73747 11.9625C8.77497 11.8875 8.73747 11.775 8.73747 11.8875Z" fill="#75A843"/>
<path d="M13.0125 14.1375C12.9375 14.1375 12.9 14.0625 12.8625 14.025C12.8625 13.95 13.1625 13.875 13.2 13.875V13.8C12.7125 13.95 11.25 14.0625 10.95 13.5375C10.8 13.7625 10.5375 13.6125 10.275 13.425C10.3125 13.5 10.4625 13.875 10.4625 13.8375C10.5375 13.875 11.025 13.9875 11.025 14.1L10.9125 14.2125C11.7 14.475 12.1875 14.55 13.0125 14.1375Z" fill="#428BC1"/>
<path d="M12.525 14.1375C12.5625 14.1 12.5625 14.0625 12.5625 13.9875L12.525 13.875C12.6 13.8 12.525 13.6125 12.4125 13.65C12.3375 13.6875 12.375 13.6875 12.3 13.65C12.2625 13.65 12.2625 13.6125 12.225 13.6125H11.55C11.475 13.6125 11.475 13.575 11.4 13.575C11.325 13.5375 11.2875 13.6125 11.25 13.65C11.25 13.725 11.2875 13.725 11.2875 13.7625C11.2875 13.8 11.25 13.8375 11.25 13.9125C11.25 13.9875 11.2875 14.025 11.325 14.0625C11.175 14.175 11.325 14.3625 11.475 14.25C11.5125 14.325 11.625 14.325 11.7375 14.325H12.15C12.225 14.325 12.375 14.3625 12.4125 14.25C12.525 14.4375 12.675 14.2125 12.525 14.1375Z" fill="#ED4C5C"/>
<path d="M13.725 13.1625C13.425 12.7875 13.275 13.35 12.9375 13.3125C13.0125 12.8625 12.3375 13.0125 12.15 13.125C12.1875 13.0875 12.225 13.0125 12.2625 12.9375C12.1125 12.9375 11.925 13.0125 11.8125 12.9C11.5875 12.75 11.2875 12.675 11.1 12.9375C10.95 12.7125 10.5375 12.4875 10.3125 12.7125C10.3125 12.4875 10.0875 12.15 9.825 12.1875C9.525 12.225 9.6375 12.6 9.7875 12.75C9.9 12.8625 10.05 12.9 10.2 12.9C10.2 12.975 10.2375 13.0125 10.275 13.05C10.4625 13.2 10.8375 13.2375 11.025 13.0875C11.025 13.4625 11.775 13.4625 11.9625 13.275C11.8875 13.4625 11.8125 13.8375 12.075 13.8375C12.3 13.8375 12.225 13.6125 12.4125 13.5375C12.5625 13.4625 12.75 13.425 12.9 13.5C13.1625 13.65 13.9875 13.6125 13.725 13.1625Z" fill="#428BC1"/>
<path d="M10.65 12.225C10.6125 12.15 10.5375 12.075 10.5375 12.075C10.3875 12.1125 10.3875 12 10.35 11.8875C10.3125 11.7 10.05 11.625 10.05 11.475C10.05 11.325 10.2 11.175 10.0875 11.025C9.97499 10.875 9.78749 10.8 9.78749 10.875C9.74999 10.95 9.93749 10.95 9.93749 11.1375C9.93749 11.3625 9.71249 11.55 9.97499 11.7375C10.125 11.9625 10.125 12.375 10.3875 12.375C10.5 12.375 10.6125 12.3375 10.65 12.225Z" fill="#75A843"/>
<path d="M11.2125 12.0375C11.1375 11.8875 11.2125 11.6625 11.0625 11.55C10.875 11.4 10.5 11.7 10.4625 11.325C10.4625 11.25 10.875 10.8 10.95 10.7625C11.0625 10.6125 11.025 10.35 10.9125 10.275C10.7625 10.2 10.725 10.275 10.6125 10.425C10.65 10.4625 10.8 10.5375 10.8 10.575C10.6875 10.8375 10.35 10.875 10.275 11.1375C10.2 11.325 10.2375 11.625 10.425 11.7375C10.5375 11.8125 10.6125 11.8125 10.725 11.8125C11.0625 11.775 10.875 11.85 10.9125 11.925C10.9125 12 11.025 12.2625 11.2125 12.0375Z" fill="#75A843"/>
<path d="M10.0875 10.2C10.0875 10.425 10.3125 10.3875 10.4625 10.35C10.4625 10.275 10.4625 10.2 10.5 10.125C10.425 10.1625 10.3125 10.1625 10.275 10.125C10.1625 10.05 10.5375 9.90002 10.5 9.90002C10.5 9.90002 10.125 10.0875 10.275 9.86252C10.3125 9.78752 10.3875 9.71252 10.425 9.63752C10.4625 9.56252 10.3125 9.63752 10.3125 9.63752C10.275 9.63752 10.2375 9.63752 10.2 9.67502C9.97501 9.86252 10.05 9.97502 10.0875 10.2Z" fill="#75A843"/>
<path d="M14.0625 10.2C13.875 9.9375 13.1625 9.075 12.15 9C12.0375 9 11.7375 9.1125 11.625 9.15C11.2875 9.375 12 9.5625 12.0375 9.7125C12.0375 9.7875 12.075 9.825 12.075 9.9C11.9625 9.7125 11.85 9.6 11.8125 9.525C11.625 9.6 11.325 9.4875 11.2875 9.3C11.25 9.375 11.25 9.4125 11.175 9.4875C11.175 9.375 11.1375 9.375 11.1 9.3C11.1 9.4125 11.1 9.5625 10.9875 9.6C11.025 9.525 10.9875 9.45 10.95 9.375C10.95 9.4875 10.95 9.5625 10.875 9.6375C10.9125 9.5625 10.8375 9.525 10.8375 9.45C10.8 9.75 10.3875 9.8625 10.8 9.975C10.95 10.0125 11.025 9.975 11.175 10.05C11.2125 10.0875 11.2875 10.1625 11.2875 10.125C11.2875 10.1625 11.1375 10.3125 11.25 10.35C11.2125 10.3875 11.1 10.6125 11.1 10.6125C11.2125 10.6125 11.1375 10.6875 11.0625 10.7625C10.95 10.95 11.0625 11.1375 11.1 11.3625C11.1 11.2875 11.2125 11.4 11.2125 11.5125C11.2125 11.6625 11.3625 11.7375 11.4 11.85C11.2125 11.6625 11.175 11.85 11.4 11.9625C11.2125 11.9625 11.175 12.075 11.3625 12.15C10.9125 12.15 11.2875 12.3375 11.3625 12.375C11.6625 12.45 11.8875 12.225 11.8875 12.1875C11.8875 12.1875 12.4875 12.7875 12.525 12.7875C12.5625 12.7875 12.8625 12.6375 12.9375 12.7125C13.0125 12.825 13.0875 12.7125 13.1625 12.75C13.2375 12.825 13.5375 12.75 13.6125 12.7125C13.65 12.7125 14.025 12.6375 13.95 12.5625C13.7625 12.4125 13.5375 12.2625 13.35 12.1125C13.1625 11.9625 12.975 11.85 12.825 11.7C12.75 11.625 12.75 11.475 12.7125 11.3625C13.05 11.7 13.3875 11.8875 13.35 11.25C13.575 11.4375 14.025 12.4875 14.0625 12.4875C14.175 12.4875 14.0625 11.3625 14.0625 11.25C14.2125 11.4 14.2125 12.6375 14.25 12.6375C14.4375 12.675 14.7 11.025 14.0625 10.2Z" fill="#89664C"/>
</svg>
