<svg width="24" height="24" viewBox="0 0 24 24" fill="none" xmlns="http://www.w3.org/2000/svg">
<path d="M0.75 12C0.75 14.2125 1.3875 16.275 2.475 18H21.4875C22.575 16.275 23.2125 14.2125 23.2125 12C23.2125 9.7875 22.575 7.725 21.4875 6H2.475C1.3875 7.725 0.75 9.7875 0.75 12Z" fill="#F9F9F9"/>
<path d="M21.525 6C19.5375 2.85 16.0125 0.75 12 0.75C7.98748 0.75 4.46248 2.85 2.47498 6H21.525Z" fill="#B4D7EE"/>
<path d="M2.47498 18C4.46248 21.15 7.98748 23.25 12 23.25C16.0125 23.25 19.5375 21.15 21.525 18H2.47498Z" fill="#B4D7EE"/>
<path d="M17.1375 11.925L14.0625 11.8125V11.775C14.55 11.7 14.925 11.4 15.45 11.4375C16.0875 11.5125 16.4625 11.1375 16.6875 11.0625C16.95 10.9875 17.1 11.1375 17.1 11.0625C17.1375 10.9875 16.95 10.8375 16.575 10.875C16.2375 10.9125 16.125 11.2125 15.3375 11.1375C14.6625 11.1 14.4375 11.3625 13.95 11.3625V11.325L16.725 10.05C16.725 10.05 16.8 10.0125 16.8 9.9375C16.7625 9.8625 16.6875 9.9 16.6875 9.9L13.875 11.025V10.9875C14.2875 10.725 14.5125 10.3125 15.0375 10.1625C15.6375 9.975 15.8625 9.525 16.05 9.3375C16.2375 9.15 16.4625 9.2625 16.4625 9.1875C16.4625 9.1125 16.2375 9.0375 15.9375 9.225C15.6375 9.4125 15.6375 9.7125 14.8875 9.9375C14.25 10.125 14.1375 10.4625 13.6875 10.6875L13.65 10.65L15.75 8.4C15.75 8.4 15.825 8.325 15.7875 8.2875C15.75 8.25 15.675 8.325 15.675 8.325L13.425 10.425L13.3875 10.3875C13.6875 9.975 13.725 9.525 14.1375 9.1875C14.625 8.775 14.625 8.2875 14.7375 8.0625C14.85 7.8375 15.075 7.8375 15.0375 7.7625C15 7.6875 14.775 7.725 14.55 7.9875C14.325 8.2875 14.4375 8.55 13.875 9.0375C13.3875 9.45 13.3875 9.825 13.0875 10.1625C13.0875 10.1625 13.05 10.1625 13.05 10.125L14.1 7.2375C14.1 7.2375 14.1375 7.1625 14.0625 7.125C13.9875 7.0875 13.95 7.2 13.95 7.2L12.675 9.975H12.6375C12.75 9.4875 12.6375 9.0375 12.8625 8.5875C13.1625 8.025 12.975 7.5375 12.975 7.3125C13.0125 7.05 13.2 6.975 13.1625 6.9375C13.125 6.8625 12.9 7.0125 12.7875 7.35C12.7125 7.6875 12.9 7.9125 12.5625 8.5875C12.2625 9.1875 12.4125 9.4875 12.2625 9.9375H12.225L12.1125 6.8625C12.1125 6.8625 12.1125 6.75 12.0375 6.75C11.9625 6.75 11.9625 6.8625 11.9625 6.8625L11.85 9.9375H11.8125C11.7375 9.45 11.4375 9.075 11.475 8.55C11.55 7.9125 11.175 7.5375 11.1 7.3125C11.025 7.0875 11.175 6.9 11.1 6.9C11.025 6.8625 10.875 7.05 10.9125 7.425C10.95 7.7625 11.25 7.875 11.175 8.6625C11.1375 9.3375 11.4 9.5625 11.4 10.05H11.3625L10.0875 7.275C10.0875 7.275 10.05 7.2 9.97502 7.2C9.90002 7.2375 9.93752 7.3125 9.93752 7.3125L10.9875 10.2H10.95C10.6875 9.7875 10.275 9.5625 10.125 9.0375C9.93752 8.4375 9.48752 8.2125 9.30002 8.025C9.11252 7.8375 9.22502 7.6125 9.15002 7.6125C9.07502 7.6125 9.00002 7.8375 9.18752 8.1375C9.37502 8.4375 9.67502 8.4375 9.90002 9.1875C10.0875 9.825 10.425 9.9375 10.65 10.3875L10.6125 10.425L8.36252 8.325C8.36252 8.325 8.28752 8.25 8.25002 8.2875C8.21252 8.325 8.28752 8.4 8.28752 8.4L10.3875 10.65L10.35 10.6875C9.93752 10.3875 9.48752 10.35 9.15002 9.9375C8.73752 9.45 8.25002 9.45 8.02502 9.3375C7.80002 9.225 7.80002 9 7.72502 9.0375C7.65002 9.075 7.68752 9.3 7.95002 9.525C8.25002 9.75 8.51252 9.6375 9.00002 10.2C9.41252 10.6875 9.78752 10.6875 10.125 10.9875C10.125 10.9875 10.125 11.025 10.0875 11.025L7.20002 9.975C7.20002 9.975 7.12502 9.9375 7.08752 10.0125C7.05002 10.0875 7.16252 10.125 7.16252 10.125L9.93752 11.4V11.4375C9.45002 11.325 9.00002 11.4375 8.55002 11.2125C7.98752 10.9125 7.50002 11.1 7.27502 11.1C7.01252 11.0625 6.93752 10.875 6.90002 10.9125C6.82502 10.95 6.97502 11.175 7.31252 11.2875C7.65002 11.3625 7.87502 11.175 8.55002 11.5125C9.15002 11.8125 9.45002 11.6625 9.90002 11.8125V11.85L6.82502 11.9625C6.82502 11.9625 6.71252 11.9625 6.71252 12.0375C6.71252 12.1125 6.82502 12.1125 6.82502 12.1125L9.90002 12.225V12.2625C9.41252 12.3375 9.03752 12.6375 8.51252 12.6C7.87502 12.525 7.50002 12.9 7.27502 12.975C7.01252 13.05 6.86252 12.9 6.86252 12.975C6.82502 13.05 7.01252 13.2 7.38752 13.1625C7.76252 13.125 7.83752 12.8625 8.62502 12.9C9.30002 12.9375 9.52502 12.675 10.0125 12.675V12.7125L7.23752 13.9875C7.23752 13.9875 7.16252 14.025 7.16252 14.1C7.16252 14.175 7.27502 14.1375 7.27502 14.1375L10.1625 13.0875V13.125C9.75002 13.3875 9.52502 13.8 9.00002 13.95C8.40002 14.1375 8.17502 14.5875 7.98752 14.775C7.80002 14.9625 7.57502 14.85 7.57502 14.925C7.57502 15 7.80002 15.075 8.10002 14.8875C8.40002 14.7 8.40002 14.4 9.15002 14.175C9.78752 13.9875 9.90002 13.65 10.35 13.425L10.3875 13.4625L8.28752 15.7125C8.28752 15.7125 8.21252 15.7875 8.25002 15.825C8.28752 15.8625 8.36252 15.7875 8.36252 15.7875L10.6125 13.6875L10.65 13.725C10.35 14.1375 10.3125 14.5875 9.90002 14.925C9.41252 15.3375 9.41252 15.825 9.30002 16.05C9.18752 16.275 8.96252 16.275 9.00002 16.35C9.03752 16.425 9.26252 16.3875 9.48752 16.125C9.71252 15.8625 9.60002 15.5625 10.1625 15.075C10.65 14.6625 10.65 14.2875 10.95 13.95C10.95 13.95 10.9875 13.95 10.9875 13.9875L9.93752 16.875C9.93752 16.875 9.90002 16.95 9.97502 16.9875C10.05 17.025 10.0875 16.9125 10.0875 16.9125L11.3625 14.1375H11.4C11.2875 14.625 11.4 15.075 11.175 15.525C10.875 16.0875 11.0625 16.575 11.025 16.8C10.9875 17.0625 10.8 17.1375 10.8375 17.175C10.875 17.25 11.1 17.1 11.2125 16.7625C11.2875 16.425 11.1 16.2375 11.4375 15.525C11.7375 14.925 11.5875 14.625 11.7375 14.175H11.775L11.8875 17.25C11.8875 17.25 11.8875 17.3625 11.9625 17.3625C12.0375 17.3625 12.0375 17.25 12.0375 17.25L12.15 14.175H12.1875C12.2625 14.6625 12.5625 15.0375 12.525 15.5625C12.45 16.2 12.825 16.575 12.9 16.8C12.975 17.0625 12.825 17.2125 12.9 17.2125C12.975 17.25 13.125 17.0625 13.0875 16.6875C13.05 16.35 12.75 16.2375 12.825 15.45C12.8625 14.775 12.6 14.55 12.6 14.0625H12.6375L13.9125 16.8375C13.9125 16.8375 13.95 16.9125 14.025 16.9125C14.1 16.875 14.0625 16.8 14.0625 16.8L12.975 13.875H13.0125C13.275 14.2875 13.6875 14.5125 13.8375 15.0375C14.025 15.6375 14.475 15.8625 14.6625 16.05C14.85 16.2375 14.7375 16.4625 14.8125 16.4625C14.8875 16.4625 14.9625 16.2375 14.775 15.9375C14.5875 15.6375 14.2875 15.6375 14.0625 14.8875C13.875 14.25 13.5375 14.1375 13.3125 13.6875L13.35 13.65L15.6 15.75C15.6 15.75 15.675 15.825 15.7125 15.7875C15.75 15.75 15.675 15.675 15.675 15.675L13.575 13.425L13.6125 13.3875C14.025 13.6875 14.475 13.725 14.8125 14.1375C15.225 14.625 15.7125 14.625 15.9375 14.7375C16.1625 14.85 16.1625 15.075 16.2375 15.0375C16.3125 15 16.275 14.775 16.0125 14.55C15.7125 14.325 15.45 14.4375 14.9625 13.875C14.55 13.3875 14.175 13.3875 13.8375 13.05C13.8375 13.05 13.8375 13.0125 13.875 13.0125L16.7625 14.0625C16.7625 14.0625 16.8375 14.1 16.875 14.025C16.9125 13.95 16.8 13.9125 16.8 13.9125L14.025 12.6375V12.6C14.5125 12.7125 14.9625 12.6 15.4125 12.825C15.975 13.125 16.4625 12.9375 16.6875 12.9375C16.95 12.975 17.025 13.1625 17.0625 13.125C17.1375 13.0875 16.9875 12.8625 16.65 12.75C16.3125 12.675 16.0875 12.8625 15.4125 12.525C14.8125 12.225 14.5125 12.375 14.0625 12.225V12.1875L17.1375 12.075C17.1375 12.075 17.25 12.075 17.25 12C17.25 11.925 17.1375 11.925 17.1375 11.925Z" fill="#F6B40E"/>
<path d="M13.125 11.7375C13.0125 11.625 12.8625 11.55 12.7125 11.55C12.5625 11.55 12.45 11.625 12.3375 11.7375C12.525 11.8875 12.8625 11.8875 13.125 11.7375ZM13.0125 11.7C12.9375 11.775 12.8625 11.8125 12.7875 11.8125C12.825 11.775 12.8625 11.7375 12.8625 11.7C12.8625 11.6625 12.825 11.625 12.7875 11.5875C12.9 11.625 12.975 11.6625 13.0125 11.7ZM12.6 11.5875C12.5625 11.625 12.5625 11.6625 12.5625 11.7C12.5625 11.7375 12.6 11.8125 12.6375 11.8125C12.5625 11.8125 12.4875 11.775 12.4125 11.7C12.4875 11.6625 12.525 11.625 12.6 11.5875Z" fill="#85340A"/>
<path d="M12.75 11.4375C12.525 11.4375 12.4875 11.475 12.4125 11.55C12.3 11.625 12.2625 11.625 12.2625 11.625C12.2625 11.625 12.2625 11.7 12.3 11.6625C12.3375 11.6625 12.4125 11.625 12.4875 11.55C12.6 11.475 12.675 11.475 12.7875 11.475C13.0875 11.475 13.2375 11.7 13.275 11.7C13.3125 11.7 13.05 11.4375 12.75 11.4375Z" fill="#85340A"/>
<path d="M12.1125 11.4C12.075 11.475 12.075 11.5125 12.075 11.5875C12.0375 11.8125 12.075 12.075 12.225 12.3375C12.225 12.3375 12.2625 12.3 12.3 12.3C12.15 12.1125 12.1125 11.8875 12.1125 11.7C12.1125 11.5875 12.1875 11.5125 12.225 11.4375C12.4875 11.2125 12.9375 11.25 13.3125 11.55C12.975 11.0625 12.4875 11.1 12.1125 11.4Z" fill="#85340A"/>
<path d="M12.4875 11.8875C12.375 11.8125 12.3375 11.775 12.3 11.775C12.2625 11.775 12.2625 11.8125 12.4125 11.8875C12.5625 11.9625 12.8625 12 13.125 11.775C12.825 11.925 12.6 11.925 12.4875 11.8875Z" fill="#85340A"/>
<path d="M12.3 12.4875C12.2625 12.4875 12.225 12.45 12.1875 12.4125C12.1875 12.45 12.1125 12.525 12 12.525C11.8875 12.525 11.8125 12.4125 11.8125 12.4125C11.8125 12.45 11.775 12.4875 11.7 12.4875C11.6625 12.4875 11.5875 12.45 11.5875 12.375C11.5875 12.3375 11.625 12.3 11.6625 12.3C11.5875 12.3 11.55 12.375 11.55 12.45C11.55 12.525 11.625 12.6 11.7 12.6C11.7375 12.6 11.775 12.5625 11.8125 12.525C11.85 12.5625 11.9625 12.5625 12 12.5625H12.0375C12.075 12.5625 12.15 12.5625 12.225 12.525C12.2625 12.5625 12.3 12.6 12.3375 12.6C12.4125 12.6 12.4875 12.525 12.4875 12.45C12.4875 12.375 12.45 12.3375 12.375 12.3C12.4125 12.3 12.45 12.3375 12.45 12.375C12.4125 12.45 12.375 12.4875 12.3 12.4875Z" fill="#85340A"/>
<path d="M12 12.825C12.075 12.825 12.15 12.75 12.2625 12.825C12.375 12.9 12.45 12.9375 12.525 12.975C12.375 12.8625 12.3 12.75 12.15 12.75C12.1125 12.75 12.0375 12.75 12 12.7875C11.925 12.75 11.8875 12.75 11.85 12.75C11.7 12.75 11.625 12.9 11.475 12.975C11.55 12.9375 11.625 12.8625 11.7375 12.825C11.85 12.7875 11.925 12.825 12 12.825Z" fill="#85340A"/>
<path d="M12 12.9375C11.925 12.9375 11.8875 12.9 11.775 12.9375C11.7 12.9375 11.625 12.9375 11.5125 12.975H11.475C11.8125 13.0125 11.6625 13.2 12 13.2C12.3375 13.2 12.1875 13.0125 12.525 12.975H12.45C12.15 12.8625 12.1125 12.9375 12 12.9375ZM12 13.125C11.7375 13.125 11.8125 12.9375 11.5125 12.9375C11.8125 12.8625 11.85 12.975 12 12.975C12.1125 12.975 12.1875 12.9 12.4875 12.9375C12.1875 12.975 12.2625 13.125 12 13.125Z" fill="#85340A"/>
<path d="M12 13.2C11.85 13.2 11.7 13.3125 11.7 13.5C11.7375 13.35 11.85 13.275 12 13.275C12.15 13.275 12.2625 13.3875 12.3 13.5C12.3 13.3125 12.15 13.2 12 13.2Z" fill="#85340A"/>
<path d="M11.775 11.4375C11.85 11.5125 11.8875 11.625 11.8875 11.7C11.925 11.8875 11.85 12.075 11.7 12.3C11.7 12.3 11.7375 12.3 11.775 12.3375C11.8875 12.075 11.9625 11.85 11.925 11.5875C11.925 11.5125 11.8875 11.475 11.8875 11.4C11.55 11.1 11.0625 11.0625 10.6875 11.55C11.0625 11.2125 11.55 11.175 11.775 11.4375Z" fill="#85340A"/>
<path d="M11.55 11.5875C11.6625 11.6625 11.7 11.7 11.7375 11.7C11.775 11.7 11.775 11.6625 11.775 11.6625C11.775 11.6625 11.7 11.6625 11.625 11.5875C11.5125 11.5125 11.475 11.475 11.2875 11.475C10.95 11.475 10.7625 11.7375 10.8 11.7375C10.8375 11.7375 10.9875 11.5125 11.2875 11.5125C11.3625 11.5125 11.475 11.5125 11.55 11.5875Z" fill="#85340A"/>
<path d="M10.9125 11.7375C10.9875 11.8125 11.1375 11.85 11.2875 11.85C11.4 11.85 11.55 11.8125 11.6625 11.7375C11.55 11.625 11.4 11.55 11.25 11.55C11.1375 11.55 10.9875 11.625 10.9125 11.7375ZM10.9875 11.7375C11.0625 11.6625 11.1375 11.5875 11.2125 11.5875C11.175 11.625 11.1375 11.6625 11.1375 11.7C11.1375 11.775 11.175 11.8125 11.2125 11.8125C11.1375 11.85 11.025 11.8125 10.9875 11.7375ZM11.55 11.7C11.5125 11.7375 11.4375 11.775 11.3625 11.8125C11.4 11.775 11.4 11.7375 11.4 11.7C11.4 11.6625 11.3625 11.625 11.3625 11.5875C11.475 11.625 11.55 11.6625 11.55 11.7Z" fill="#85340A"/>
<path d="M11.7375 11.775C11.7 11.775 11.6625 11.8125 11.55 11.8875C11.4375 11.9625 11.2125 11.9625 10.9125 11.8125C11.175 12.0375 11.475 12 11.625 11.925C11.775 11.8125 11.775 11.775 11.7375 11.775Z" fill="#85340A"/>
</svg>
