<svg width="24" height="24" viewBox="0 0 24 24" fill="none" xmlns="http://www.w3.org/2000/svg">
<path d="M23.25 12C23.25 7.08751 20.1375 2.92501 15.75 1.38751V22.6125C20.1375 21.075 23.25 16.9125 23.25 12Z" fill="#ED4C5C"/>
<path d="M0.75 12C0.75 16.9125 3.9 21.075 8.25 22.6125V1.38751C3.9 2.92501 0.75 7.08751 0.75 12Z" fill="#ED4C5C"/>
<path d="M15.75 1.3875C14.5875 0.975 13.3125 0.75 12 0.75C10.6875 0.75 9.4125 0.975 8.25 1.3875V22.6125C9.4125 23.025 10.6875 23.25 12 23.25C13.3125 23.25 14.5875 23.025 15.75 22.6125V1.3875Z" fill="#F9F9F9"/>
</svg>
