<svg width="100" height="100" viewBox="0 0 100 100" fill="none" xmlns="http://www.w3.org/2000/svg">
<path d="M62.9188 5.4375C61.2365 3.71588 59.2271 2.34788 57.0086 1.41389C54.79 0.479908 52.4072 -0.0012207 50.0001 -0.0012207C47.593 -0.0012207 45.2102 0.479908 42.9916 1.41389C40.7731 2.34788 38.7637 3.71588 37.0813 5.4375L33.1938 9.425L27.6313 9.35625C25.2235 9.32775 22.8343 9.78099 20.6042 10.6893C18.3741 11.5976 16.3482 12.9427 14.6455 14.6454C12.9428 16.3481 11.5977 18.374 10.6894 20.6041C9.78108 22.8342 9.32785 25.2234 9.35635 27.6313L9.41885 33.1937L5.44385 37.0813C3.72222 38.7636 2.35423 40.773 1.42024 42.9915C0.486256 45.2101 0.00512695 47.5929 0.00512695 50C0.00512695 52.4071 0.486256 54.7899 1.42024 57.0085C2.35423 59.227 3.72222 61.2364 5.44385 62.9188L9.4251 66.8063L9.35635 72.3688C9.32785 74.7766 9.78108 77.1658 10.6894 79.3959C11.5977 81.626 12.9428 83.6519 14.6455 85.3546C16.3482 87.0573 18.3741 88.4024 20.6042 89.3107C22.8343 90.219 25.2235 90.6722 27.6313 90.6438L33.1938 90.5813L37.0813 94.5563C38.7637 96.2779 40.7731 97.6459 42.9916 98.5799C45.2102 99.5138 47.593 99.995 50.0001 99.995C52.4072 99.995 54.79 99.5138 57.0086 98.5799C59.2271 97.6459 61.2365 96.2779 62.9188 94.5563L66.8064 90.575L72.3689 90.6438C74.7767 90.6722 77.1659 90.219 79.396 89.3107C81.6261 88.4024 83.652 87.0573 85.3547 85.3546C87.0574 83.6519 88.4025 81.626 89.3108 79.3959C90.2191 77.1658 90.6723 74.7766 90.6438 72.3688L90.5813 66.8063L94.5563 62.9188C96.278 61.2364 97.646 59.227 98.5799 57.0085C99.5139 54.7899 99.9951 52.4071 99.9951 50C99.9951 47.5929 99.5139 45.2101 98.5799 42.9915C97.646 40.773 96.278 38.7636 94.5563 37.0813L90.5751 33.1937L90.6438 27.6313C90.6723 25.2234 90.2191 22.8342 89.3108 20.6041C88.4025 18.374 87.0574 16.3481 85.3547 14.6454C83.652 12.9427 81.6261 11.5976 79.396 10.6893C77.1659 9.78099 74.7767 9.32775 72.3689 9.35625L66.8064 9.41875L62.9188 5.44375V5.4375ZM64.7126 42.8375L45.9626 61.5875C45.6723 61.8785 45.3275 62.1094 44.9478 62.267C44.5681 62.4245 44.1611 62.5056 43.7501 62.5056C43.3391 62.5056 42.932 62.4245 42.5524 62.267C42.1727 62.1094 41.8279 61.8785 41.5376 61.5875L32.1626 52.2125C31.872 51.922 31.6416 51.577 31.4843 51.1974C31.3271 50.8178 31.2461 50.4109 31.2461 50C31.2461 49.5891 31.3271 49.1822 31.4843 48.8026C31.6416 48.423 31.872 48.078 32.1626 47.7875C32.4531 47.497 32.7981 47.2665 33.1777 47.1092C33.5573 46.952 33.9642 46.8711 34.3751 46.8711C34.786 46.8711 35.1929 46.952 35.5725 47.1092C35.9521 47.2665 36.297 47.497 36.5876 47.7875L43.7501 54.9563L60.2876 38.4125C60.8744 37.8257 61.6702 37.4961 62.5001 37.4961C63.3299 37.4961 64.1258 37.8257 64.7126 38.4125C65.2994 38.9993 65.629 39.7952 65.629 40.625C65.629 41.4548 65.2994 42.2507 64.7126 42.8375Z" fill="#E42990"/>
</svg>
