<svg xmlns="http://www.w3.org/2000/svg" xmlns:xlink="http://www.w3.org/1999/xlink" viewBox="0 0 1589.21 337" width="150" height="32">
    <defs>
        <style>
            .cls-1 {
                fill: #45cd00;
            }

            .cls-2 {
                fill: #008ad4;
            }

            .cls-3 {
                fill: url(#Degradado_sin_nombre_2);
            }

            .cls-4 {
                fill: url(#Degradado_sin_nombre_2-2);
            }

            .cls-5 {
                fill: url(#Degradado_sin_nombre_2-3);
            }

            .cls-6 {
                fill: url(#Degradado_sin_nombre_2-4);
            }
        </style>
        <linearGradient id="Degradado_sin_nombre_2" x1="1336.49" y1="271.71" x2="1336.49" y2="136.48"
            gradientUnits="userSpaceOnUse">
            <stop offset="0" stop-color="#ff6d6d" />
            <stop offset="1" stop-color="#ff8d00" />
        </linearGradient>
        <linearGradient id="Degradado_sin_nombre_2-2" x1="1474.54" y1="337" x2="1474.54" y2="136.48"
            xlink:href="#Degradado_sin_nombre_2" />
        <linearGradient id="Degradado_sin_nombre_2-3" x1="1202.16" y1="271.57" x2="1202.16" y2="94.71"
            xlink:href="#Degradado_sin_nombre_2" />
        <linearGradient id="Degradado_sin_nombre_2-4" x1="1566.56" y1="271.54" x2="1566.56" y2="226.39"
            xlink:href="#Degradado_sin_nombre_2" />
    </defs>
    <g id="Capa_2" data-name="Capa 2">
        <g id="Capa_1-2" data-name="Capa 1">
            <path class="cls-1"
                d="M1045.26,107.39c0-9,5.28-14.38,14.12-14.38h15.33c8.82,0,14.11,5.37,14.11,14.38v4.33c0,9-5.29,14.42-14.11,14.42h-15.33c-8.84,0-14.12-5.39-14.12-14.42Z" />
            <path class="cls-2"
                d="M463.37,215.27c0,21.34,9.58,30.08,23.38,30.08,12.34,0,23.91-8.74,33-18v-84a7.51,7.51,0,0,1,7.56-7.73h27.47a7.49,7.49,0,0,1,7.5,7.73v122a7.49,7.49,0,0,1-7.5,7.72H527.3a7.5,7.5,0,0,1-7.56-7.72v-7.94c-11.55,10-24.17,18.2-43,18.2-32.72,0-55.88-17.7-55.88-60.37V143.38a7.49,7.49,0,0,1,7.54-7.73h27.43a7.53,7.53,0,0,1,7.58,7.73Z" />
            <path class="cls-2"
                d="M622.07,214.39c1.76,20.54,10.79,29.55,31.45,29.55,10.58,0,19.89-3.08,24.17-8.47a17.09,17.09,0,0,1,14.1-6.68h18.36a7.47,7.47,0,0,1,7.56,7.7c0,26.72-26.93,35.94-67.21,35.94-44.83,0-71.75-24.65-71.75-71.11,0-46.27,27.21-71.47,71.75-71.47,44.79,0,71.72,24.4,71.72,69.62v7.22a7.46,7.46,0,0,1-7.55,7.7Zm-.25-26.45H679c-.76-19.25-9.82-29.56-28.45-29.56C632.38,158.38,622.84,168.69,621.82,187.94Z" />
            <path class="cls-2"
                d="M808.14,272.43c-41.28,0-67.5-9.22-67.5-35.94a7.49,7.49,0,0,1,7.55-7.7h18.42a17.2,17.2,0,0,1,14.09,6.68c4.27,5.39,13.6,8.47,24.4,8.47,21.16,0,28.22-4.88,28.22-12.12,0-21.3-92.9-9.47-92.9-61.37,0-29,28.42-40.6,63.94-40.6,41.27,0,67.46,9.25,67.46,36a7.51,7.51,0,0,1-7.56,7.71h-18.4a17,17,0,0,1-14.07-6.68c-4.3-5.41-13.6-8.49-24.41-8.49-17.39,0-24.42,4.86-24.42,12.07,0,21.35,92.89,9,92.89,61.37C875.85,260.89,847.41,272.43,808.14,272.43Z" />
            <path class="cls-2"
                d="M936.76,189.43c14.62,0,24.15-6.15,29.21-17l11.82-25.67A19.76,19.76,0,0,1,995.42,135h23.15c6.54,0,7.32,5.14,4.3,11.8L1007,181c-5.3,11.3-15.38,20.31-26.18,22.61,10.34,3.08,18.64,10.29,26.18,22.63l20.91,34.39c4,6.72,2.26,11.84-4.3,11.84h-23.17c-8.08,0-14.83-5.12-18.87-11.84l-15.6-26a33.57,33.57,0,0,0-29.21-16.69v46.77a7.53,7.53,0,0,1-7.57,7.72H901.76a7.49,7.49,0,0,1-7.51-7.72V103.64a7.46,7.46,0,0,1,7.51-7.7h27.43a7.5,7.5,0,0,1,7.57,7.7Z" />
            <path class="cls-2"
                d="M312,189.43c14.65,0,24.17-6.15,29.21-17L353,146.79A19.8,19.8,0,0,1,370.64,135h23.13c6.55,0,7.34,5.14,4.28,11.8L382.17,181c-5.25,11.3-15.33,20.31-26.17,22.61,10.37,3.08,18.66,10.29,26.17,22.63l20.94,34.39c4,6.72,2.28,11.84-4.3,11.84H375.68c-8.08,0-14.86-5.12-18.87-11.84l-15.64-26A33.5,33.5,0,0,0,312,217.94v46.77a7.48,7.48,0,0,1-7.51,7.72H277a7.5,7.5,0,0,1-7.56-7.72V103.64a7.48,7.48,0,0,1,7.56-7.7h27.47a7.45,7.45,0,0,1,7.51,7.7Z" />
            <path class="cls-2"
                d="M1053.32,272.43a7.52,7.52,0,0,1-7.54-7.72V145.87a7.52,7.52,0,0,1,7.54-7.72h27.45a7.49,7.49,0,0,1,7.53,7.72V264.71a7.49,7.49,0,0,1-7.53,7.72Z" />
            <path class="cls-2"
                d="M169.89,161.66c0,3.8-7.21,68.5-10.64,100.65-1,9.47-10.49,10.12-13,10.12H36.38c-11.44,0-15.51-5.05-16.62-11.14-1.15-6.37-7.22-67.05-10.25-88.61L8.45,162c0-5.34,3.72-9.92,8.9-9.92H160.42a9.54,9.54,0,0,1,9.47,9.63Z" />
            <path class="cls-1"
                d="M96.64,94.42c0-15.28-6.25-22.33-17.28-27.66L53.21,54.31a20.77,20.77,0,0,1-12-18.5l.08-24.23c0-6.84,5.26-7.65,12.1-4.46l34.81,16.7c11.53,5.58,20.66,16.18,23,27.5,3.2-10.76,10.57-19.48,23.17-27.33L169.53,2.24c6.81-4.21,12-2.36,12,4.51l0,24.23c0,8.43-5.31,15.54-12.13,19.7L142.87,67c-11.58,7.08-17.12,15.68-17.15,27.51l47.69.17a7.74,7.74,0,0,1,7.87,7.93l-.05,28.73c-.08,4.48-2.95,7.44-7.45,7.42l-166,0a7.75,7.75,0,0,1-7.8-8L.05,102A7.75,7.75,0,0,1,8,94.14Z" />
            <path class="cls-3"
                d="M1393.84,166.4c-2.74-7.43-8.68-13.3-13.9-17.6a49.73,49.73,0,0,0-17.87-9.39,81.75,81.75,0,0,0-23-2.93,129.1,129.1,0,0,0-26.73,3q-14.09,3-23.08,7.31c-2.18,1.09-5.81,4.39-2,13.77,3.92,9.82,7.85,14.72,16.68,10.8,14.67-6.52,22.36-7.36,32.71-7.36,14.16,0,21.25,6.38,21.25,18.12v8.22q-46.29,0-64.74,8.93c-12.31,6-18.46,19-18.46,35.15q0,16.31,12,26.67t30.65,10.63q33.24.26,42-25.43v2.21c0,1,.05,1.93.13,2.86v12.21a7.21,7.21,0,0,0,7.23,7.4h24.36a7.18,7.18,0,0,0,7.21-7.4V190.85A71.86,71.86,0,0,0,1393.84,166.4ZM1357.77,216c-.82,10.3-7.69,19.13-10.3,21.84-6.47,6.71-14.17,11.07-21.91,10.37q-7.69-.64-11.93-5.34a17.88,17.88,0,0,1-4.5-11.74,19,19,0,0,1,1-7.11,16.71,16.71,0,0,1,2.93-5.21,14.31,14.31,0,0,1,5.28-3.66,43,43,0,0,1,7-2.34,61.86,61.86,0,0,1,9.19-1.31c3.79-.3,7.35-.5,10.7-.58s7.54-.13,12.58-.13Z" />
            <path class="cls-4"
                d="M1555.65,138.16c-.72-1.12-2.13-1.68-4.18-1.68h-22.3a18.14,18.14,0,0,0-16.09,10.8l-30.94,64.66-33.57-64.68a18.14,18.14,0,0,0-16.08-10.78h-22.3c-2,0-3.46.56-4.18,1.68-1.07,1.66-.74,4.61.91,8.24L1462.13,252s-5.24,11.42-8.18,17.26c-4.85,9.62-10.15,22-19.68,24.92-2.41.74-7.87,1.31-13.94,1.95-7.25.77-11.93,3.25-15.67,9.78l-10.72,21.36c-3,5.3.3,9.08,7.58,9,0,0,18.06,2.47,35.38-1.38a60.25,60.25,0,0,0,28.85-15.74,91.36,91.36,0,0,0,15.74-22.3c19.81-38.64,73.22-150.35,73.22-150.35C1556.39,142.77,1556.72,139.82,1555.65,138.16Z" />
            <path class="cls-5"
                d="M1268.52,124.58a44.62,44.62,0,0,0-11.84-16.89,46.1,46.1,0,0,0-18.51-9.88q-10.83-3.09-30.94-3.1h-67.82a7.6,7.6,0,0,0-7.65,7.85V263.71a7.62,7.62,0,0,0,7.65,7.86h27.92a7.66,7.66,0,0,0,7.69-7.86V201.22h32.21q32.49,0,48.91-13.74t16.42-40.4A59.7,59.7,0,0,0,1268.52,124.58Zm-36.18,38.8q-4.41,6-12.79,8.57t-20.89,2.62H1175V121.25h23.64q23.68,0,31.3,7.74,6.78,7.26,6.78,18.8Q1236.74,157.44,1232.34,163.38Z" />
            <path class="cls-6"
                d="M1589.21,249a22.66,22.66,0,1,1-22.65-22.57A22.41,22.41,0,0,1,1589.21,249Zm-4.18,0a18.47,18.47,0,1,0-18.47,18.6A18.28,18.28,0,0,0,1585,249Zm-16.38-11.34c4.3,0,7.67,2.45,7.67,6.78a6.72,6.72,0,0,1-4.88,6.67l5.57,9.24h-5.11l-5.11-8.89h-4v8.89h-4.42V237.62Zm-5.81,10.52h4.88c2.32,0,4.06-1.17,4.06-3.5s-1.62-3.4-4.06-3.4h-4.88Z" />
        </g>
    </g>
</svg>