<svg width="50" height="50" viewBox="0 0 50 50" fill="none" xmlns="http://www.w3.org/2000/svg">
<path d="M46.1434 24.9999L48.8114 20.3889C49.1321 19.8341 49.2193 19.1747 49.0539 18.5557C48.8885 17.9366 48.484 17.4086 47.9293 17.0877L43.3135 14.4197V9.10307C43.3135 8.46213 43.0589 7.84744 42.6057 7.39423C42.1525 6.94102 41.5378 6.6864 40.8968 6.6864H35.5826L32.917 2.07299C32.5951 1.51937 32.0681 1.11479 31.4501 0.946822C31.1436 0.863727 30.8236 0.8423 30.5087 0.883784C30.1939 0.925268 29.8904 1.02884 29.6158 1.18849L25 3.85649L20.3842 1.18607C19.8291 0.865616 19.1695 0.778774 18.5504 0.944649C17.9313 1.11052 17.4035 1.51553 17.083 2.07057L14.415 6.6864H9.10075C8.45982 6.6864 7.84513 6.94102 7.39191 7.39423C6.9387 7.84744 6.68409 8.46213 6.68409 9.10307V14.4173L2.06826 17.0853C1.79283 17.2437 1.55143 17.455 1.35791 17.707C1.16439 17.959 1.02258 18.2468 0.940612 18.5538C0.858646 18.8608 0.838144 19.1809 0.880285 19.4958C0.922426 19.8108 1.02638 20.1143 1.18617 20.3889L3.85417 24.9999L1.18617 29.6109C0.867145 30.1662 0.780588 30.8251 0.945371 31.4439C1.11016 32.0628 1.51292 32.5914 2.06584 32.9145L6.68167 35.5825V40.8967C6.68167 41.5377 6.93628 42.1524 7.3895 42.6056C7.84271 43.0588 8.4574 43.3134 9.09834 43.3134H14.415L17.083 47.9292C17.297 48.295 17.6024 48.5987 17.9694 48.8106C18.3363 49.0224 18.7521 49.1351 19.1758 49.1376C19.5963 49.1376 20.0144 49.0264 20.3866 48.8113L24.9976 46.1433L29.6134 48.8113C30.1683 49.1313 30.8275 49.2182 31.4464 49.0528C32.0652 48.8874 32.5932 48.4834 32.9146 47.9292L35.5802 43.3134H40.8944C41.5354 43.3134 42.1501 43.0588 42.6033 42.6056C43.0565 42.1524 43.3111 41.5377 43.3111 40.8967V35.5825L47.9269 32.9145C48.2019 32.7556 48.4428 32.5441 48.636 32.292C48.8291 32.04 48.9707 31.7523 49.0526 31.4455C49.1345 31.1387 49.1552 30.8188 49.1134 30.504C49.0716 30.1892 48.9682 29.8857 48.809 29.6109L46.1434 24.9999ZM18.9559 12.8924C19.9177 12.8927 20.8399 13.2751 21.5197 13.9553C22.1995 14.6356 22.5812 15.5581 22.5809 16.5198C22.5806 17.4816 22.1982 18.4038 21.518 19.0836C20.8377 19.7634 19.9152 20.1451 18.9535 20.1448C17.9918 20.1445 17.0696 19.7621 16.3897 19.0819C15.7099 18.4016 15.3282 17.4791 15.3285 16.5174C15.3288 15.5557 15.7112 14.6335 16.3914 13.9536C17.0717 13.2738 17.9942 12.8921 18.9559 12.8924ZM19.6809 36.0924L15.8143 33.1948L30.3143 13.8615L34.1809 16.7591L19.6809 36.0924ZM31.0393 37.0591C30.5631 37.0589 30.0915 36.965 29.6517 36.7826C29.2118 36.6002 28.8121 36.333 28.4755 35.9961C28.1389 35.6593 27.8719 35.2594 27.6898 34.8194C27.5077 34.3794 27.4141 33.9079 27.4143 33.4317C27.4144 32.9555 27.5084 32.4839 27.6907 32.0441C27.8731 31.6042 28.1404 31.2045 28.4772 30.8679C28.814 30.5313 29.2139 30.2643 29.6539 30.0822C30.0939 29.9001 30.5655 29.8065 31.0417 29.8067C32.0034 29.807 32.9256 30.1893 33.6054 30.8696C34.2853 31.5499 34.667 32.4723 34.6667 33.4341C34.6663 34.3958 34.284 35.318 33.6037 35.9978C32.9235 36.6777 32.001 37.0594 31.0393 37.0591Z" fill="#E42990"/>
</svg>
