<svg width="27" height="28" viewBox="0 0 27 28" fill="none" xmlns="http://www.w3.org/2000/svg">
<path d="M25.1653 13.9999L26.6373 11.4559C26.8142 11.1498 26.8624 10.786 26.7711 10.4445C26.6798 10.1029 26.4567 9.81162 26.1507 9.63458L23.604 8.16258V5.22925C23.604 4.87562 23.4635 4.53649 23.2135 4.28644C22.9634 4.03639 22.6243 3.89591 22.2707 3.89591H19.3387L17.868 1.35058C17.6904 1.04514 17.3996 0.821921 17.0587 0.729247C16.8895 0.683402 16.713 0.67158 16.5393 0.694468C16.3656 0.717356 16.1981 0.774497 16.0467 0.862581L13.5 2.33458L10.9533 0.861247C10.6471 0.684444 10.2832 0.636531 9.9416 0.728048C9.60004 0.819566 9.30882 1.04302 9.132 1.34925L7.66 3.89591H4.728C4.37438 3.89591 4.03524 4.03639 3.78519 4.28644C3.53514 4.53649 3.39467 4.87562 3.39467 5.22925V8.16125L0.848 9.63325C0.696043 9.72065 0.562854 9.83722 0.456086 9.97626C0.349318 10.1153 0.271075 10.2741 0.225852 10.4434C0.180629 10.6128 0.169318 10.7894 0.192568 10.9632C0.215819 11.1369 0.273172 11.3044 0.361333 11.4559L1.83333 13.9999L0.361333 16.5439C0.185319 16.8503 0.137563 17.2138 0.228478 17.5552C0.319393 17.8967 0.541606 18.1883 0.846667 18.3666L3.39333 19.8386V22.7706C3.39333 23.1242 3.53381 23.4633 3.78386 23.7134C4.03391 23.9634 4.37304 24.1039 4.72667 24.1039H7.66L9.132 26.6506C9.25004 26.8524 9.41858 27.0199 9.62104 27.1368C9.82349 27.2537 10.0529 27.3159 10.2867 27.3172C10.5187 27.3172 10.7493 27.2559 10.9547 27.1372L13.4987 25.6652L16.0453 27.1372C16.3515 27.3138 16.7152 27.3617 17.0566 27.2705C17.3981 27.1792 17.6894 26.9563 17.8667 26.6506L19.3373 24.1039H22.2693C22.623 24.1039 22.9621 23.9634 23.2121 23.7134C23.4622 23.4633 23.6027 23.1242 23.6027 22.7706V19.8386L26.1493 18.3666C26.301 18.2789 26.434 18.1622 26.5405 18.0232C26.6471 17.8841 26.7252 17.7254 26.7704 17.5561C26.8156 17.3868 26.827 17.2103 26.8039 17.0366C26.7809 16.863 26.7238 16.6955 26.636 16.5439L25.1653 13.9999ZM10.1653 7.31991C10.6959 7.32009 11.2047 7.53104 11.5798 7.90637C11.9549 8.28169 12.1655 8.79064 12.1653 9.32125C12.1652 9.85186 11.9542 10.3607 11.5789 10.7357C11.2036 11.1108 10.6946 11.3214 10.164 11.3212C9.63339 11.3211 9.12458 11.1101 8.74951 10.7348C8.37444 10.3595 8.16382 9.85052 8.164 9.31991C8.16418 8.7893 8.37513 8.2805 8.75045 7.90542C9.12577 7.53035 9.63472 7.31974 10.1653 7.31991ZM10.5653 20.1199L8.432 18.5212L16.432 7.85458L18.5653 9.45325L10.5653 20.1199ZM16.832 20.6532C16.5693 20.6532 16.3091 20.6013 16.0664 20.5007C15.8237 20.4001 15.6032 20.2526 15.4175 20.0668C15.2318 19.881 15.0845 19.6604 14.984 19.4176C14.8836 19.1748 14.8319 18.9146 14.832 18.6519C14.8321 18.3892 14.8839 18.129 14.9845 17.8863C15.0852 17.6436 15.2326 17.4231 15.4185 17.2374C15.6043 17.0517 15.8249 16.9044 16.0677 16.8039C16.3104 16.7035 16.5706 16.6518 16.8333 16.6519C17.3639 16.6521 17.8727 16.863 18.2478 17.2384C18.6229 17.6137 18.8335 18.1226 18.8333 18.6532C18.8332 19.1839 18.6222 19.6927 18.2469 20.0677C17.8716 20.4428 17.3626 20.6534 16.832 20.6532Z" fill="#00B6E9"/>
</svg>
