<svg width="29" height="32" viewBox="0 0 29 32" fill="none" xmlns="http://www.w3.org/2000/svg">
<path d="M3.0472 6.184V18.0784C3.0472 24.5536 8.1752 29.8016 14.5 29.8016C20.8248 29.8016 25.9528 24.5536 25.9528 18.0784V6.1904L14.4312 2.3136L3.0472 6.184ZM14.428 0L28.1 4.5984V18.0784C28.1 25.7664 22.0104 32 14.5 32C6.9896 32 0.9 25.7664 0.9 18.0784V4.5984L14.428 0ZM21.4984 10.376C21.394 10.2801 21.2713 10.2061 21.1376 10.1587C21.004 10.1112 20.8622 10.0911 20.7206 10.0996C20.5791 10.1081 20.4407 10.145 20.3137 10.2082C20.1867 10.2714 20.0738 10.3594 19.9816 10.4672L13.076 18.4176L8.6152 13.4816C8.52089 13.3759 8.40628 13.2903 8.27821 13.2299C8.15013 13.1694 8.0112 13.1353 7.86969 13.1297C7.72817 13.124 7.58696 13.1468 7.45446 13.1969C7.32195 13.2469 7.20087 13.323 7.0984 13.4208C6.88861 13.6213 6.76512 13.8956 6.75407 14.1856C6.74302 14.4756 6.84528 14.7585 7.0392 14.9744L12.3032 20.7984C12.4035 20.9111 12.5267 21.001 12.6646 21.0621C12.8026 21.1232 12.952 21.154 13.1028 21.1525C13.2537 21.151 13.4025 21.1172 13.5391 21.0533C13.6758 20.9895 13.7972 20.8971 13.8952 20.7824L21.5864 11.928C21.7762 11.7086 21.8732 11.4239 21.8567 11.1342C21.8403 10.8445 21.7118 10.5726 21.4984 10.376Z" fill="#00B6E9"/>
</svg>
