<svg width="50" height="58" viewBox="0 0 50 58" fill="none" xmlns="http://www.w3.org/2000/svg">
<path d="M4.24181 11.2085V32.7671C4.24181 44.5034 13.5363 54.0154 25 54.0154C36.4637 54.0154 45.7582 44.5034 45.7582 32.7671V11.2201L24.8753 4.1934L4.24181 11.2085ZM24.8695 0L49.65 8.3346V32.7671C49.65 46.7016 38.6126 58 25 58C11.3874 58 0.350006 46.7016 0.350006 32.7671V8.3346L24.8695 0ZM37.6846 18.8065C37.4953 18.6326 37.2729 18.4986 37.0307 18.4126C36.7885 18.3265 36.5315 18.2901 36.2749 18.3055C36.0183 18.3209 35.7675 18.3879 35.5374 18.5024C35.3072 18.6168 35.1025 18.7765 34.9354 18.9718L22.419 33.3819L14.3338 24.4354C14.1629 24.2439 13.9551 24.0887 13.723 23.9791C13.4909 23.8696 13.2391 23.8078 12.9826 23.7975C12.7261 23.7872 12.4701 23.8286 12.23 23.9193C11.9898 24.0099 11.7703 24.148 11.5846 24.3252C11.2044 24.6886 10.9805 25.1858 10.9605 25.7114C10.9405 26.237 11.1258 26.7498 11.4773 27.1411L21.0183 37.6971C21.2 37.9014 21.4234 38.0644 21.6734 38.1751C21.9234 38.2858 22.1942 38.3417 22.4677 38.3389C22.7411 38.3362 23.0107 38.2749 23.2584 38.1592C23.5062 38.0435 23.7262 37.876 23.9038 37.6681L37.8441 21.6195C38.1881 21.2218 38.3639 20.7057 38.3341 20.1807C38.3043 19.6557 38.0714 19.1628 37.6846 18.8065Z" fill="#E42990"/>
</svg>
