<svg width="52" height="38" viewBox="0 0 52 38" fill="none" xmlns="http://www.w3.org/2000/svg">
<path d="M47.75 0.875H4.25C3.28859 0.875 2.36656 1.25692 1.68674 1.93674C1.00692 2.61656 0.625 3.53859 0.625 4.5V33.4773C0.625 34.4388 1.00692 35.3608 1.68674 36.0406C2.36656 36.7204 3.28859 37.1023 4.25 37.1023H47.75C48.7114 37.1023 49.6334 36.7204 50.3133 36.0406C50.9931 35.3608 51.375 34.4388 51.375 33.4773V4.5C51.375 3.53859 50.9931 2.61656 50.3133 1.93674C49.6334 1.25692 48.7114 0.875 47.75 0.875ZM27.8125 29.875H24.1875C23.7068 29.875 23.2458 29.684 22.9059 29.3441C22.566 29.0042 22.375 28.5432 22.375 28.0625C22.375 27.5818 22.566 27.1208 22.9059 26.7809C23.2458 26.441 23.7068 26.25 24.1875 26.25H27.8125C28.2932 26.25 28.7542 26.441 29.0941 26.7809C29.434 27.1208 29.625 27.5818 29.625 28.0625C29.625 28.5432 29.434 29.0042 29.0941 29.3441C28.7542 29.684 28.2932 29.875 27.8125 29.875ZM42.3125 29.875H35.0625C34.5818 29.875 34.1208 29.684 33.7809 29.3441C33.441 29.0042 33.25 28.5432 33.25 28.0625C33.25 27.5818 33.441 27.1208 33.7809 26.7809C34.1208 26.441 34.5818 26.25 35.0625 26.25H42.3125C42.7932 26.25 43.2542 26.441 43.5941 26.7809C43.934 27.1208 44.125 27.5818 44.125 28.0625C44.125 28.5432 43.934 29.0042 43.5941 29.3441C43.2542 29.684 42.7932 29.875 42.3125 29.875ZM4.25 10.1414V4.5H47.75V10.1414H4.25Z" fill="#E42990"/>
</svg>
