<svg width="18" height="20" viewBox="0 0 18 20" fill="none" xmlns="http://www.w3.org/2000/svg">
<path d="M16.59 4.69C15.5932 4.47079 14.6914 3.94144 14.0141 3.17789C13.3368 2.41435 12.9187 1.45587 12.82 0.44V0H9.37V13.67C9.3707 14.2766 9.18054 14.868 8.82644 15.3604C8.47235 15.8529 7.97228 16.2215 7.39706 16.414C6.82185 16.6065 6.20066 16.6131 5.62148 16.4329C5.0423 16.2527 4.5345 15.8948 4.17 15.41C3.84345 14.9808 3.64349 14.4689 3.59273 13.932C3.54197 13.3951 3.64244 12.8548 3.88278 12.372C4.12312 11.8892 4.49373 11.4834 4.95271 11.2003C5.41169 10.9172 5.94073 10.7681 6.48 10.77C6.77824 10.7683 7.07499 10.8121 7.36 10.9V7.4C7.02834 7.35893 6.69411 7.34222 6.36 7.35C5.12931 7.38288 3.93492 7.77393 2.92308 8.47527C1.91125 9.1766 1.12589 10.1578 0.663176 11.2986C0.200463 12.4395 0.0804785 13.6905 0.317917 14.8986C0.555355 16.1066 1.13991 17.2191 2 18.1C2.88149 18.9962 4.00949 19.6101 5.24069 19.8638C6.4719 20.1175 7.75071 19.9994 8.91466 19.5246C10.0786 19.0498 11.0751 18.2397 11.7776 17.1973C12.4801 16.1548 12.8569 14.9271 12.86 13.67V6.67C14.2515 7.66395 15.92 8.19565 17.63 8.19V4.79C17.2941 4.79139 16.959 4.75787 16.63 4.69H16.59Z" fill="white"/>
</svg>
