<svg width="24" height="18" viewBox="0 0 24 18" fill="none" xmlns="http://www.w3.org/2000/svg">
<path d="M23.5 3.50708C23.3641 3.02231 23.0994 2.58342 22.734 2.23708C22.3583 1.88008 21.8978 1.62471 21.396 1.49508C19.518 1.00008 11.994 1.00008 11.994 1.00008C8.85733 0.964389 5.72143 1.12135 2.604 1.47008C2.10219 1.60929 1.64256 1.87036 1.266 2.23008C0.895999 2.58608 0.627999 3.02508 0.487999 3.50608C0.151692 5.31782 -0.0117088 7.15742 -7.97736e-07 9.00008C-0.0120008 10.8411 0.150999 12.6801 0.487999 14.4941C0.624999 14.9731 0.891999 15.4101 1.263 15.7631C1.634 16.1161 2.096 16.3711 2.604 16.5061C4.507 17.0001 11.994 17.0001 11.994 17.0001C15.1347 17.0358 18.2746 16.8789 21.396 16.5301C21.8978 16.4004 22.3583 16.1451 22.734 15.7881C23.104 15.4351 23.367 14.9961 23.499 14.5181C23.8441 12.707 24.0119 10.8667 24 9.02308C24.026 7.17168 23.8584 5.32264 23.5 3.50608V3.50708ZM9.602 12.4241V5.57708L15.862 9.00108L9.602 12.4241Z" fill="white"/>
</svg>
