<svg width="20" height="20" viewBox="0 0 20 20" fill="none" xmlns="http://www.w3.org/2000/svg">
<path d="M10 19C9.35501 18.428 8.62601 17.833 7.85501 17.2H7.84501C5.13001 14.98 2.05301 12.468 0.694012 9.45799C0.248011 8.49999 0.0110115 7.45799 1.14776e-05 6.39999C-0.00147023 5.68198 0.140523 4.9709 0.417654 4.30852C0.694785 3.64613 1.10147 3.0458 1.61382 2.54276C2.12617 2.03972 2.73387 1.64412 3.40122 1.37919C4.06858 1.11426 4.78214 0.985339 5.50001 0.999994C6.68064 1.00186 7.83585 1.34308 8.82801 1.98299C9.26398 2.26596 9.65843 2.60825 10 2.99999C10.344 2.60999 10.738 2.26799 11.173 1.98299C12.1647 1.34295 13.3197 1.00171 14.5 0.999994C15.2179 0.985339 15.9314 1.11426 16.5988 1.37919C17.2662 1.64412 17.8739 2.03972 18.3862 2.54276C18.8986 3.0458 19.3052 3.64613 19.5824 4.30852C19.8595 4.9709 20.0015 5.68198 20 6.39999C19.9898 7.45881 19.7532 8.50319 19.306 9.46299C17.947 12.473 14.871 14.984 12.156 17.2L12.146 17.208C11.374 17.837 10.646 18.432 10.001 19.008L10 19ZM5.50001 2.99999C4.56852 2.98834 3.67008 3.34484 3.00001 3.99199C2.68047 4.30587 2.42728 4.68078 2.25549 5.09445C2.0837 5.50811 1.99682 5.95209 2.00001 6.39999C2.01101 7.16999 2.18601 7.92999 2.51201 8.62799C3.15354 9.92669 4.01914 11.102 5.06901 12.1C6.06001 13.1 7.20001 14.068 8.18601 14.882C8.45901 15.107 8.73701 15.334 9.01501 15.561L9.19001 15.704C9.45701 15.922 9.73301 16.148 10 16.37L10.013 16.358L10.019 16.353H10.025L10.034 16.346H10.044L10.062 16.331L10.103 16.298L10.11 16.292L10.121 16.284H10.127L10.136 16.276L10.8 15.731L10.974 15.588C11.255 15.359 11.533 15.132 11.806 14.907C12.792 14.093 13.933 13.126 14.924 12.121C15.9741 11.1236 16.8397 9.94853 17.481 8.64999C17.813 7.94599 17.991 7.17799 18.001 6.39999C18.0029 5.95337 17.9154 5.51089 17.7434 5.09868C17.5715 4.68646 17.3187 4.31288 17 3.99999C16.3312 3.34991 15.4326 2.99048 14.5 2.99999C13.9373 2.99521 13.38 3.10955 12.8647 3.33551C12.3494 3.56146 11.8877 3.8939 11.51 4.31099L10 6.05099L8.49001 4.31099C8.11232 3.8939 7.65064 3.56146 7.13531 3.33551C6.61999 3.10955 6.06268 2.99521 5.50001 2.99999Z" fill="#8E3392"/>
</svg>
