<svg width="22" height="24" viewBox="0 0 22 24" fill="none" xmlns="http://www.w3.org/2000/svg">
<path fill-rule="evenodd" clip-rule="evenodd" d="M15.281 12.219C15.3508 12.2887 15.4063 12.3714 15.4441 12.4625C15.4819 12.5537 15.5013 12.6513 15.5013 12.75C15.5013 12.8486 15.4819 12.9463 15.4441 13.0374C15.4063 13.1286 15.3508 13.2113 15.281 13.281L10.781 17.781C10.7113 17.8508 10.6286 17.9063 10.5375 17.9441C10.4463 17.9819 10.3487 18.0013 10.25 18.0013C10.1514 18.0013 10.0537 17.9819 9.96255 17.9441C9.87143 17.9063 9.78867 17.8508 9.719 17.781L7.469 15.531C7.39927 15.4613 7.34396 15.3785 7.30622 15.2874C7.26848 15.1963 7.24905 15.0986 7.24905 15C7.24905 14.9014 7.26848 14.8037 7.30622 14.7126C7.34396 14.6215 7.39927 14.5387 7.469 14.469C7.60983 14.3282 7.80084 14.2491 8 14.2491C8.09862 14.2491 8.19627 14.2685 8.28738 14.3062C8.37849 14.344 8.46127 14.3993 8.531 14.469L10.25 16.1895L14.219 12.219C14.2887 12.1492 14.3714 12.0937 14.4626 12.0559C14.5537 12.0181 14.6514 11.9987 14.75 11.9987C14.8487 11.9987 14.9463 12.0181 15.0375 12.0559C15.1286 12.0937 15.2113 12.1492 15.281 12.219Z" fill="#8E3392"/>
<path d="M11 1.5C11.9946 1.5 12.9484 1.89509 13.6517 2.59835C14.3549 3.30161 14.75 4.25544 14.75 5.25V6H7.25V5.25C7.25 4.25544 7.64509 3.30161 8.34835 2.59835C9.05161 1.89509 10.0054 1.5 11 1.5ZM16.25 6V5.25C16.25 3.85761 15.6969 2.52226 14.7123 1.53769C13.7277 0.553123 12.3924 0 11 0C9.60761 0 8.27226 0.553123 7.28769 1.53769C6.30312 2.52226 5.75 3.85761 5.75 5.25V6H0.5V21C0.5 21.7956 0.816071 22.5587 1.37868 23.1213C1.94129 23.6839 2.70435 24 3.5 24H18.5C19.2956 24 20.0587 23.6839 20.6213 23.1213C21.1839 22.5587 21.5 21.7956 21.5 21V6H16.25ZM2 7.5H20V21C20 21.3978 19.842 21.7794 19.5607 22.0607C19.2794 22.342 18.8978 22.5 18.5 22.5H3.5C3.10218 22.5 2.72064 22.342 2.43934 22.0607C2.15804 21.7794 2 21.3978 2 21V7.5Z" fill="#8E3392"/>
</svg>
